<svg width="46" height="46" viewBox="0 0 46 46" fill="none" xmlns="http://www.w3.org/2000/svg">
<rect width="46" height="46" rx="23" fill="#A1D800"/>
<path d="M24.1531 19.9963V17.6515C24.1531 16.9621 23.8212 16.3068 23.2659 15.8981L21.1969 14.3763C20.8238 14.1 20.3718 13.9509 19.9076 13.9509C19.4434 13.9509 18.9915 14.1 18.6184 14.3763L16.5494 15.8981C16.2748 16.1008 16.0516 16.3649 15.8975 16.6694C15.7434 16.9739 15.6628 17.3102 15.6621 17.6515V19.9967C15.6628 20.5738 15.8923 21.1271 16.3004 21.5352C16.7084 21.9432 17.2617 22.1728 17.8388 22.1734H21.976C22.5533 22.1729 23.1067 21.9433 23.5149 21.5352C23.9231 21.127 24.1526 20.5736 24.1531 19.9963ZM17.2875 19.9963V17.6515C17.2875 17.4768 17.3712 17.3106 17.5118 17.207L19.5808 15.6856C19.6755 15.6156 19.7901 15.5778 19.9078 15.5778C20.0256 15.5778 20.1402 15.6156 20.2349 15.6856L22.3035 17.207C22.444 17.3106 22.5281 17.4764 22.5281 17.6515V19.9963C22.528 20.1427 22.4699 20.283 22.3665 20.3865C22.263 20.49 22.1228 20.5482 21.9765 20.5484H17.8384C17.6921 20.5481 17.552 20.4898 17.4486 20.3863C17.3453 20.2828 17.2876 20.1426 17.2875 19.9963Z" fill="#387000"/>
<path d="M20.5731 33.2445H15.9272C15.4016 33.244 14.8977 33.0349 14.526 32.6633C14.1543 32.2916 13.9453 31.7876 13.9447 31.262V14.7382C13.9447 13.6454 14.8344 12.7561 15.9272 12.7561H27.7312C28.8241 12.7561 29.7137 13.6454 29.7137 14.7386V20.7511C29.7137 20.9666 29.7993 21.1733 29.9517 21.3256C30.1041 21.478 30.3108 21.5636 30.5262 21.5636C30.7417 21.5636 30.9484 21.478 31.1008 21.3256C31.2531 21.1733 31.3387 20.9666 31.3387 20.7511V14.7386C31.3387 12.7496 29.7202 11.1311 27.7312 11.1311H15.9268C13.9374 11.1311 12.3193 12.7496 12.3193 14.7386V31.2628C12.3193 33.2514 13.9374 34.8699 15.9268 34.8699H20.5731C20.7886 34.8699 20.9953 34.7843 21.1476 34.6319C21.3 34.4796 21.3856 34.2729 21.3856 34.0574C21.3856 33.8419 21.3 33.6353 21.1476 33.4829C20.9953 33.3305 20.7886 33.2445 20.5731 33.2445Z" fill="#387000"/>
<path d="M19.096 26.467H16.6162C16.4007 26.467 16.1941 26.5526 16.0417 26.7049C15.8893 26.8573 15.8037 27.064 15.8037 27.2795C15.8037 27.495 15.8893 27.7016 16.0417 27.854C16.1941 28.0064 16.4007 28.092 16.6162 28.092H19.0964C19.3119 28.092 19.5185 28.0064 19.6709 27.854C19.8233 27.7016 19.9089 27.495 19.9089 27.2795C19.9089 27.064 19.8233 26.8573 19.6709 26.7049C19.5185 26.5526 19.3119 26.467 19.0964 26.467H19.096ZM19.096 23.8471H16.6162C16.4007 23.8471 16.1941 23.9327 16.0417 24.085C15.8893 24.2374 15.8037 24.4441 15.8037 24.6596C15.8037 24.875 15.8893 25.0817 16.0417 25.2341C16.1941 25.3865 16.4007 25.4721 16.6162 25.4721H19.0964C19.3119 25.4721 19.5185 25.3865 19.6709 25.2341C19.8233 25.0817 19.9089 24.875 19.9089 24.6596C19.9089 24.4441 19.8233 24.2374 19.6709 24.085C19.5185 23.9327 19.3119 23.8471 19.0964 23.8471H19.096ZM19.096 29.3448H16.6162C16.4007 29.3448 16.1941 29.4304 16.0417 29.5828C15.8893 29.7352 15.8037 29.9418 15.8037 30.1573C15.8037 30.3728 15.8893 30.5795 16.0417 30.7319C16.1941 30.8842 16.4007 30.9698 16.6162 30.9698H19.0964C19.3119 30.9698 19.5185 30.8842 19.6709 30.7319C19.8233 30.5795 19.9089 30.3728 19.9089 30.1573C19.9089 29.9418 19.8233 29.7352 19.6709 29.5828C19.5185 29.4304 19.3119 29.3448 19.0964 29.3448H19.096ZM27.2811 22.0007C23.7524 22.0007 20.881 24.8712 20.881 28.3999C20.881 31.9286 23.7524 34.8 27.2811 34.8C30.8098 34.8 33.6807 31.929 33.6807 28.3999C33.6807 24.8708 30.8102 22.0002 27.2811 22.0002V22.0007ZM27.2811 33.175C24.6482 33.175 22.506 31.0328 22.506 28.3999C22.506 25.7674 24.6482 23.6252 27.2811 23.6252C29.9136 23.6252 32.0557 25.7674 32.0557 28.3999C32.0557 31.0328 29.914 33.175 27.2811 33.175Z" fill="#387000"/>
<path d="M28.8553 28.4955C28.5835 28.2526 28.1509 28.0284 27.5618 27.8269C27.3404 27.7696 27.1258 27.6888 26.9215 27.586C26.7298 27.4925 26.6104 27.3621 26.6104 27.2471C26.6104 27.0603 26.7757 26.9128 27.0369 26.8624C27.1319 26.8481 27.2277 26.8395 27.3237 26.8368C27.5195 26.8368 27.7166 26.8718 27.9075 26.94C27.9684 26.9628 28.0257 26.9875 28.0785 27.0148C28.3219 27.1415 28.6095 27.0842 28.7773 26.8758C28.8801 26.7479 28.9207 26.5825 28.889 26.422C28.8726 26.3399 28.8383 26.2623 28.7887 26.1948C28.7391 26.1273 28.6753 26.0715 28.6018 26.0312C28.3251 25.8814 28.0249 25.7799 27.7141 25.731V25.5116C27.7141 25.2614 27.5106 25.0579 27.2608 25.0579C27.0109 25.0579 26.807 25.2614 26.807 25.5112V25.7225C26.3418 25.8001 25.9669 26.0016 25.6918 26.3217C25.4924 26.5576 25.373 26.8506 25.3506 27.1586C25.3173 27.6026 25.455 27.9731 25.7601 28.2595C26.016 28.5008 26.4149 28.7222 26.9516 28.9197C27.1629 28.983 27.3156 29.0375 27.4411 29.094C27.9879 29.2922 28.0334 29.423 28.0334 29.5295C28.0334 29.7204 27.8133 29.8805 27.4675 29.9373C27.3831 29.9536 27.2972 29.9612 27.2112 29.9601C27.1909 29.9601 27.1551 29.9585 27.1198 29.9568L27.093 29.9556C27.0597 29.9536 27.0389 29.9516 27.0231 29.9536C26.7631 29.9231 26.5328 29.8557 26.3382 29.7525C26.0863 29.6184 25.7914 29.6729 25.6211 29.8845C25.5693 29.9487 25.532 30.0233 25.5116 30.1032C25.4913 30.1831 25.4885 30.2665 25.5033 30.3476C25.5314 30.502 25.6232 30.6357 25.7552 30.7133C26.0615 30.8928 26.4149 31.0127 26.8074 31.0695V31.2889C26.8123 31.4058 26.8623 31.5163 26.9467 31.5973C27.0312 31.6783 27.1437 31.7235 27.2608 31.7235C27.3778 31.7235 27.4903 31.6783 27.5748 31.5973C27.6593 31.5163 27.7092 31.4058 27.7141 31.2889V31.076C28.148 31.0098 28.5116 30.8461 28.7956 30.5894C29.1291 30.2867 29.2981 29.9142 29.2981 29.4815C29.2981 29.0927 29.1494 28.7608 28.8561 28.496L28.8553 28.4955Z" fill="#387000"/>
</svg>
