<svg width="48" height="48" viewBox="0 0 48 48" fill="none" xmlns="http://www.w3.org/2000/svg">
<rect width="48" height="48" rx="24" fill="#A1D800"/>
<g clip-path="url(#clip0_1_10302)">
<path fill-rule="evenodd" clip-rule="evenodd" d="M15.5625 13.875C15.049 13.875 14.625 14.299 14.625 14.8125V33.1875C14.625 33.701 15.049 34.125 15.5625 34.125C16.0803 34.125 16.5 34.5447 16.5 35.0625C16.5 35.5803 16.0803 36 15.5625 36C14.0135 36 12.75 34.7365 12.75 33.1875V14.8125C12.75 13.2635 14.0135 12 15.5625 12H30.5625C32.1115 12 33.375 13.2635 33.375 14.8125V27.5625C33.375 28.0803 32.9553 28.5 32.4375 28.5C31.9197 28.5 31.5 28.0803 31.5 27.5625V14.8125C31.5 14.299 31.076 13.875 30.5625 13.875H15.5625Z" fill="#387000"/>
<path fill-rule="evenodd" clip-rule="evenodd" d="M16.5 33.1875C16.5 31.6342 17.7592 30.375 19.3125 30.375H32.4375C33.9908 30.375 35.25 31.6342 35.25 33.1875C35.25 34.7408 33.9908 36 32.4375 36H15.5625C15.0447 36 14.625 35.5803 14.625 35.0625C14.625 34.5447 15.0447 34.125 15.5625 34.125C16.076 34.125 16.5 33.701 16.5 33.1875ZM18.2139 34.125H32.4375C32.9552 34.125 33.375 33.7052 33.375 33.1875C33.375 32.6698 32.9552 32.25 32.4375 32.25H19.3125C18.7948 32.25 18.375 32.6698 18.375 33.1875C18.375 33.5159 18.3182 33.8316 18.2139 34.125Z" fill="#387000"/>
<path fill-rule="evenodd" clip-rule="evenodd" d="M24 16.5C24 15.9822 24.4197 15.5625 24.9375 15.5625H28.6875C29.2053 15.5625 29.625 15.9822 29.625 16.5C29.625 17.0178 29.2053 17.4375 28.6875 17.4375H24.9375C24.4197 17.4375 24 17.0178 24 16.5Z" fill="#387000"/>
<path fill-rule="evenodd" clip-rule="evenodd" d="M24 20.25C24 19.7322 24.4197 19.3125 24.9375 19.3125H28.6875C29.2053 19.3125 29.625 19.7322 29.625 20.25C29.625 20.7678 29.2053 21.1875 28.6875 21.1875H24.9375C24.4197 21.1875 24 20.7678 24 20.25Z" fill="#387000"/>
<path fill-rule="evenodd" clip-rule="evenodd" d="M24 24C24 23.4822 24.4197 23.0625 24.9375 23.0625H28.6875C29.2053 23.0625 29.625 23.4822 29.625 24C29.625 24.5178 29.2053 24.9375 28.6875 24.9375H24.9375C24.4197 24.9375 24 24.5178 24 24Z" fill="#387000"/>
<path fill-rule="evenodd" clip-rule="evenodd" d="M24 27.75C24 27.2322 24.4197 26.8125 24.9375 26.8125H28.6875C29.2053 26.8125 29.625 27.2322 29.625 27.75C29.625 28.2678 29.2053 28.6875 28.6875 28.6875H24.9375C24.4197 28.6875 24 28.2678 24 27.75Z" fill="#387000"/>
<path fill-rule="evenodd" clip-rule="evenodd" d="M19.3125 15.5625C19.8303 15.5625 20.25 15.9822 20.25 16.5V18.375C20.25 18.8928 19.8303 19.3125 19.3125 19.3125C18.7947 19.3125 18.375 18.8928 18.375 18.375V16.5C18.375 15.9822 18.7947 15.5625 19.3125 15.5625Z" fill="#387000"/>
<path fill-rule="evenodd" clip-rule="evenodd" d="M16.5 20.25C16.5 18.6967 17.7592 17.4375 19.3125 17.4375C20.8658 17.4375 22.125 18.6967 22.125 20.25C22.125 20.7678 21.7053 21.1875 21.1875 21.1875C20.6697 21.1875 20.25 20.7678 20.25 20.25C20.25 19.7323 19.8302 19.3125 19.3125 19.3125C18.7948 19.3125 18.375 19.7323 18.375 20.25C18.375 20.7677 18.7948 21.1875 19.3125 21.1875C20.8658 21.1875 22.125 22.4467 22.125 24C22.125 25.5533 20.8658 26.8125 19.3125 26.8125C17.7592 26.8125 16.5 25.5533 16.5 24C16.5 23.4822 16.9197 23.0625 17.4375 23.0625C17.9553 23.0625 18.375 23.4822 18.375 24C18.375 24.5177 18.7948 24.9375 19.3125 24.9375C19.8303 24.9375 20.25 24.5178 20.25 24C20.25 23.4822 19.8303 23.0625 19.3125 23.0625C17.7592 23.0625 16.5 21.8033 16.5 20.25Z" fill="#387000"/>
<path fill-rule="evenodd" clip-rule="evenodd" d="M19.3125 24.9375C19.8303 24.9375 20.25 25.3572 20.25 25.875V27.75C20.25 28.2678 19.8303 28.6875 19.3125 28.6875C18.7947 28.6875 18.375 28.2678 18.375 27.75V25.875C18.375 25.3572 18.7947 24.9375 19.3125 24.9375Z" fill="#387000"/>
</g>
<defs>
<clipPath id="clip0_1_10302">
<rect width="24" height="24" fill="white" transform="translate(12 12)"/>
</clipPath>
</defs>
</svg>
