<svg width="48" height="48" viewBox="0 0 48 48" fill="none" xmlns="http://www.w3.org/2000/svg">
<rect width="48" height="48" rx="24" fill="#A1D800"/>
<g clip-path="url(#clip0_1_10323)">
<path d="M24 12C21.6266 12 19.3066 12.7038 17.3332 14.0224C15.3598 15.3409 13.8217 17.2151 12.9135 19.4078C12.0052 21.6005 11.7676 24.0133 12.2306 26.3411C12.6936 28.6689 13.8365 30.8071 15.5147 32.4853C17.193 34.1635 19.3312 35.3064 21.6589 35.7694C23.9867 36.2324 26.3995 35.9948 28.5922 35.0866C30.7849 34.1783 32.6591 32.6402 33.9776 30.6668C35.2962 28.6935 36 26.3734 36 24C35.9966 20.8185 34.7312 17.7682 32.4815 15.5185C30.2318 13.2688 27.1815 12.0034 24 12ZM24 34C22.0222 34 20.0888 33.4135 18.4443 32.3147C16.7998 31.2159 15.5181 29.6541 14.7612 27.8268C14.0043 25.9996 13.8063 23.9889 14.1922 22.0491C14.578 20.1093 15.5304 18.3275 16.9289 16.9289C18.3275 15.5304 20.1093 14.578 22.0491 14.1921C23.9889 13.8063 25.9996 14.0043 27.8268 14.7612C29.6541 15.5181 31.2159 16.7998 32.3147 18.4443C33.4135 20.0888 34 22.0222 34 24C33.9968 26.6512 32.9422 29.1929 31.0676 31.0676C29.1929 32.9422 26.6512 33.9968 24 34Z" fill="#387000"/>
<path d="M24 19C23.0111 19 22.0444 19.2932 21.2222 19.8427C20.3999 20.3921 19.759 21.173 19.3806 22.0866C19.0022 23.0002 18.9031 24.0055 19.0961 24.9755C19.289 25.9454 19.7652 26.8363 20.4645 27.5355C21.1637 28.2348 22.0546 28.711 23.0246 28.9039C23.9945 29.0969 24.9998 28.9978 25.9134 28.6194C26.827 28.241 27.6079 27.6001 28.1574 26.7779C28.7068 25.9556 29 24.9889 29 24C28.9984 22.6744 28.4711 21.4036 27.5338 20.4662C26.5964 19.5289 25.3256 19.0016 24 19ZM24 27C23.4067 27 22.8266 26.8241 22.3333 26.4944C21.8399 26.1648 21.4554 25.6962 21.2284 25.1481C21.0013 24.5999 20.9419 23.9967 21.0576 23.4147C21.1734 22.8328 21.4591 22.2982 21.8787 21.8787C22.2982 21.4591 22.8328 21.1734 23.4147 21.0576C23.9967 20.9419 24.5999 21.0013 25.1481 21.2284C25.6962 21.4554 26.1648 21.8399 26.4944 22.3333C26.8241 22.8266 27 23.4067 27 24C26.9992 24.7954 26.6829 25.558 26.1204 26.1204C25.558 26.6829 24.7954 26.9992 24 27Z" fill="#387000"/>
<path d="M24 18C24.2652 18 24.5196 17.8946 24.7071 17.7071C24.8946 17.5196 25 17.2652 25 17V16C25 15.7348 24.8946 15.4804 24.7071 15.2929C24.5196 15.1054 24.2652 15 24 15C23.7348 15 23.4804 15.1054 23.2929 15.2929C23.1054 15.4804 23 15.7348 23 16V17C23 17.2652 23.1054 17.5196 23.2929 17.7071C23.4804 17.8946 23.7348 18 24 18ZM17 23H16C15.7348 23 15.4804 23.1054 15.2929 23.2929C15.1054 23.4804 15 23.7348 15 24C15 24.2652 15.1054 24.5196 15.2929 24.7071C15.4804 24.8946 15.7348 25 16 25H17C17.2652 25 17.5196 24.8946 17.7071 24.7071C17.8946 24.5196 18 24.2652 18 24C18 23.7348 17.8946 23.4804 17.7071 23.2929C17.5196 23.1054 17.2652 23 17 23ZM24 30C23.7348 30 23.4804 30.1054 23.2929 30.2929C23.1054 30.4804 23 30.7348 23 31V32C23 32.2652 23.1054 32.5196 23.2929 32.7071C23.4804 32.8946 23.7348 33 24 33C24.2652 33 24.5196 32.8946 24.7071 32.7071C24.8946 32.5196 25 32.2652 25 32V31C25 30.7348 24.8946 30.4804 24.7071 30.2929C24.5196 30.1054 24.2652 30 24 30ZM32 23H31C30.7348 23 30.4804 23.1054 30.2929 23.2929C30.1054 23.4804 30 23.7348 30 24C30 24.2652 30.1054 24.5196 30.2929 24.7071C30.4804 24.8946 30.7348 25 31 25H32C32.2652 25 32.5196 24.8946 32.7071 24.7071C32.8946 24.5196 33 24.2652 33 24C33 23.7348 32.8946 23.4804 32.7071 23.2929C32.5196 23.1054 32.2652 23 32 23Z" fill="#387000"/>
</g>
<defs>
<clipPath id="clip0_1_10323">
<rect width="24" height="24" fill="white" transform="translate(12 12)"/>
</clipPath>
</defs>
</svg>
