<svg width="48" height="48" viewBox="0 0 48 48" fill="none" xmlns="http://www.w3.org/2000/svg">
<rect width="48" height="48" rx="24" fill="#A1D800"/>
<g clip-path="url(#clip0_1_10339)">
<path fill-rule="evenodd" clip-rule="evenodd" d="M18.5625 23.25C19.0803 23.25 19.5 23.6697 19.5 24.1875V33.1875C19.5 33.7052 19.9198 34.125 20.4375 34.125C20.9552 34.125 21.375 33.7052 21.375 33.1875V24.1875C21.375 23.6697 21.7947 23.25 22.3125 23.25C22.8303 23.25 23.25 23.6697 23.25 24.1875V33.1875C23.25 34.7408 21.9908 36 20.4375 36C18.8842 36 17.625 34.7408 17.625 33.1875V24.1875C17.625 23.6697 18.0447 23.25 18.5625 23.25Z" fill="#387000"/>
<path fill-rule="evenodd" clip-rule="evenodd" d="M30.375 24.1875C30.375 23.6697 30.7947 23.25 31.3125 23.25H35.0625C35.5803 23.25 36 23.6697 36 24.1875V33.1875C36 34.7408 34.7408 36 33.1875 36C31.6342 36 30.375 34.7408 30.375 33.1875V24.1875ZM32.25 25.125V33.1875C32.25 33.7052 32.6698 34.125 33.1875 34.125C33.7052 34.125 34.125 33.7052 34.125 33.1875V25.125H32.25Z" fill="#387000"/>
<path fill-rule="evenodd" clip-rule="evenodd" d="M33.1875 17.625C33.7053 17.625 34.125 18.0447 34.125 18.5625V24.1875C34.125 24.7053 33.7053 25.125 33.1875 25.125C32.6697 25.125 32.25 24.7053 32.25 24.1875V18.5625C32.25 18.0447 32.6697 17.625 33.1875 17.625Z" fill="#387000"/>
<path fill-rule="evenodd" clip-rule="evenodd" d="M31.3253 12.7834C31.4006 12.3313 31.7917 12 32.25 12H34.125C34.5833 12 34.9744 12.3313 35.0498 12.7834L35.9873 18.4084C36.0326 18.6802 35.956 18.9582 35.7778 19.1685C35.5997 19.3787 35.3381 19.5 35.0625 19.5H31.3125C31.0369 19.5 30.7753 19.3787 30.5972 19.1685C30.419 18.9582 30.3425 18.6802 30.3878 18.4084L31.3253 12.7834ZM33.0442 13.875L32.4192 17.625H33.9558L33.3308 13.875H33.0442Z" fill="#387000"/>
<path fill-rule="evenodd" clip-rule="evenodd" d="M14.8125 13.875C14.2948 13.875 13.875 14.2948 13.875 14.8125V15.9111C14.1684 15.8068 14.4841 15.75 14.8125 15.75H16.6875C17.2053 15.75 17.625 16.1697 17.625 16.6875V18.5625C17.625 19.0802 18.0448 19.5 18.5625 19.5H22.3125C22.8302 19.5 23.25 19.0802 23.25 18.5625C23.25 18.0447 23.6697 17.625 24.1875 17.625H27.9375C28.4553 17.625 28.875 18.0447 28.875 18.5625C28.875 19.0803 28.4553 19.5 27.9375 19.5H24.965C24.5789 20.5924 23.5371 21.375 22.3125 21.375H18.5625C17.0092 21.375 15.75 20.1158 15.75 18.5625V17.625H14.8125C14.299 17.625 13.875 18.049 13.875 18.5625C13.875 19.0803 13.4553 19.5 12.9375 19.5C12.4197 19.5 12 19.0803 12 18.5625V14.8125C12 13.2592 13.2592 12 14.8125 12H22.3125C23.5371 12 24.5789 12.7826 24.965 13.875H27.9375C28.4553 13.875 28.875 14.2947 28.875 14.8125C28.875 15.3303 28.4553 15.75 27.9375 15.75H24.1875C23.6697 15.75 23.25 15.3303 23.25 14.8125C23.25 14.2948 22.8302 13.875 22.3125 13.875H14.8125Z" fill="#387000"/>
<path fill-rule="evenodd" clip-rule="evenodd" d="M27.9375 12C28.4553 12 28.875 12.4197 28.875 12.9375V20.4375C28.875 20.9553 28.4553 21.375 27.9375 21.375C27.4197 21.375 27 20.9553 27 20.4375V12.9375C27 12.4197 27.4197 12 27.9375 12Z" fill="#387000"/>
</g>
<defs>
<clipPath id="clip0_1_10339">
<rect width="24" height="24" fill="white" transform="translate(12 12)"/>
</clipPath>
</defs>
</svg>
