<svg width="48" height="48" viewBox="0 0 48 48" fill="none" xmlns="http://www.w3.org/2000/svg">
<rect width="48" height="48" rx="24" fill="#A1D800"/>
<g clip-path="url(#clip0_1_10316)">
<path d="M30.3281 28.4062C28.1311 28.4062 26.3438 26.6189 26.3438 24.4219C26.3438 22.2249 28.1311 20.4375 30.3281 20.4375C32.5251 20.4375 34.3125 22.2249 34.3125 24.4219C34.3125 26.6189 32.5251 28.4062 30.3281 28.4062ZM30.3281 22.3125C29.165 22.3125 28.2188 23.2588 28.2188 24.4219C28.2188 25.585 29.165 26.5312 30.3281 26.5312C31.4912 26.5312 32.4375 25.585 32.4375 24.4219C32.4375 23.2588 31.4912 22.3125 30.3281 22.3125ZM22.875 35.0625C22.875 34.5447 22.4553 34.125 21.9375 34.125H17.624C15.5568 34.125 13.875 32.4432 13.875 30.376V17.624C13.875 15.5568 15.5568 13.875 17.624 13.875H26.2519C28.3192 13.875 30.0009 15.5568 30.0009 17.624C30.0009 18.1418 30.4207 18.5615 30.9384 18.5615C31.4562 18.5615 31.8759 18.1418 31.8759 17.624C31.876 14.523 29.353 12 26.251 12H17.624C14.523 12 12 14.523 12 17.624V30.3759C12 33.477 14.523 36 17.624 36H21.9375C22.4553 36 22.875 35.5803 22.875 35.0625ZM24.4219 22.6406C24.4219 22.1228 24.0022 21.7031 23.4844 21.7031H18.8906C18.3728 21.7031 17.9531 22.1228 17.9531 22.6406C17.9531 23.1584 18.3728 23.5781 18.8906 23.5781H23.4844C24.0022 23.5781 24.4219 23.1584 24.4219 22.6406ZM24.4219 29.8125C24.4219 29.2947 24.0022 28.875 23.4844 28.875H18.8906C18.3728 28.875 17.9531 29.2947 17.9531 29.8125C17.9531 30.3303 18.3728 30.75 18.8906 30.75H23.4844C24.0022 30.75 24.4219 30.3303 24.4219 29.8125ZM24.4219 26.2031C24.4219 25.6853 24.0022 25.2656 23.4844 25.2656H18.8906C18.3728 25.2656 17.9531 25.6853 17.9531 26.2031C17.9531 26.7209 18.3728 27.1406 18.8906 27.1406H23.4844C24.0022 27.1406 24.4219 26.7209 24.4219 26.2031Z" fill="#387000"/>
<path d="M35.0625 36C34.5447 36 34.125 35.5803 34.125 35.0625C34.125 33.2015 32.621 31.6875 30.7723 31.6875H29.9778C28.129 31.6875 26.625 33.2015 26.625 35.0625C26.625 35.5803 26.2053 36 25.6875 36C25.1697 36 24.75 35.5803 24.75 35.0625C24.75 32.1676 27.0952 29.8125 29.9777 29.8125H30.7722C33.6548 29.8125 36 32.1676 36 35.0625C36 35.5803 35.5803 36 35.0625 36ZM26.2969 19.0312C26.2969 18.5135 25.8772 18.0938 25.3594 18.0938H18.8906C18.3728 18.0938 17.9531 18.5135 17.9531 19.0312C17.9531 19.549 18.3728 19.9688 18.8906 19.9688H25.3594C25.8772 19.9688 26.2969 19.549 26.2969 19.0312Z" fill="#387000"/>
</g>
<defs>
<clipPath id="clip0_1_10316">
<rect width="24" height="24" fill="white" transform="translate(12 12)"/>
</clipPath>
</defs>
</svg>
