<svg width="48" height="48" viewBox="0 0 48 48" fill="none" xmlns="http://www.w3.org/2000/svg">
<rect width="48" height="48" rx="24" fill="#A1D800"/>
<path d="M18.3427 36C17.9312 36 17.5712 35.8364 17.2627 35.5091C16.9541 35.1818 16.7998 34.8 16.7998 34.3636V13.6364C16.7998 13.2 16.9541 12.8182 17.2627 12.4909C17.5712 12.1636 17.9312 12 18.3427 12H29.6569C30.0684 12 30.4284 12.1636 30.7369 12.4909C31.0455 12.8182 31.1998 13.2 31.1998 13.6364V34.3636C31.1998 34.8 31.0455 35.1818 30.7369 35.5091C30.4284 35.8364 30.0684 36 29.6569 36H18.3427ZM18.3427 31.9091V34.3636H29.6569V31.9091H18.3427ZM18.3427 30.2727H29.6569V16.0909H18.3427V30.2727ZM18.3427 14.4545H29.6569V13.6364H18.3427V14.4545Z" fill="#387000"/>
<path d="M24.0044 33.9564C24.2243 33.9564 24.4071 33.8776 24.5528 33.7198C24.6985 33.5621 24.7714 33.3666 24.7714 33.1335C24.7714 32.9003 24.697 32.7064 24.5483 32.5519C24.3996 32.3973 24.2153 32.3201 23.9954 32.3201C23.7756 32.3201 23.5928 32.3989 23.4471 32.5567C23.3014 32.7144 23.2285 32.9099 23.2285 33.143C23.2285 33.3762 23.3029 33.5701 23.4516 33.7246C23.6003 33.8792 23.7846 33.9564 24.0044 33.9564Z" fill="#387000"/>
</svg>
